Motion_pl16
version=1
nRows=8
nColumns=43
inDegrees=yes
endheader
time	pelvis_tilt	pelvis_list	pelvis_rotation	pelvis_tx	pelvis_ty	pelvis_tz	hip_flexion_r	hip_adduction_r	hip_rotation_r	knee_angle_r	ankle_angle_r	subtalar_angle_r	mtp_angle_r	hip_flexion_l	hip_adduction_l	hip_rotation_l	knee_angle_l	ankle_angle_l	subtalar_angle_l	mtp_angle_l	lumbar_extension	lumbar_bending	lumbar_rotation	neck_flexion	neck_lateral_bending	neck_rotation	arm_flex_r	arm_add_r	arm_rot_r	elbow_flex_r	pro_sup_r	wrist_flex_r	wrist_dev_r	hand_finger_flex_r	arm_flex_l	arm_add_l	arm_rot_l	elbow_flex_l	pro_sup_l	wrist_flex_l	wrist_dev_l	hand_finger_flex_l
      1.71000000	      3.68733568	    -16.19940447	     81.86281611	     -0.05596576	      0.62497950	      0.48985198	     83.84047343	     -2.16917362	     -4.58011262	   -109.08481178	     11.95420220	     11.82288355	     45.46392554	     81.76975863	    -15.77961037	     -2.65689069	   -111.34392110	     16.33215937	     14.40916927	     49.69165811	    -52.46526126	     -1.23403049	      2.94979721	      7.87800045	     -3.65176122	      2.42221647	     79.25386960	    -34.53384375	     45.37649287	     69.30824887	    117.63659587	     -2.92558027	      7.97128209	     26.50376566	     71.79456710	    -30.99677496	     22.58370635	     72.77694872	    106.11408421	    -10.65744858	      4.09541400	     30.26919800
      1.71250000	      3.70228811	    -16.07822831	     81.88404430	     -0.05621347	      0.62729352	      0.48910279	     83.43699506	     -2.17398206	     -4.58732803	   -108.79204792	     11.83698688	     11.81778823	     45.44963899	     81.30250380	    -15.74153534	     -2.76754387	   -110.97308690	     16.29279852	     14.26966920	     49.71605288	    -52.51092530	     -1.18368515	      2.92461413	      7.60213852	     -3.66502714	      2.48096171	     78.52305836	    -34.81746551	     44.99991075	     69.47543500	    117.56334186	     -2.81865442	      8.04982705	     26.35600181	     70.93133382	    -31.08972231	     22.05907487	     72.98955767	    105.99446233	    -10.46785631	      4.05739742	     30.38950727
      1.71500000	      3.72526155	    -16.13233445	     81.91369305	     -0.05615972	      0.62923802	      0.48877338	     83.24631353	     -2.13735675	     -4.57773187	   -108.47460672	     11.79679804	     11.81888439	     45.44104332	     81.10139094	    -15.68866292	     -2.79466581	   -110.64269182	     16.27259466	     14.26512081	     49.71728801	    -52.33514612	     -1.17574300	      2.94721872	      7.70065960	     -3.66053853	      2.48782980	     78.05316972	    -35.06709473	     45.14609027	     69.29126304	    117.56892414	     -2.74650684	      8.09648091	     26.36166613	     70.43553781	    -31.24291713	     22.14873660	     72.86004872	    106.00098602	    -10.40760166	      4.09218928	     30.41697005
      1.71750000	      3.64515032	    -16.04997740	     81.87562231	     -0.05636898	      0.63187878	      0.48811818	     82.85139536	     -2.15371075	     -4.49670458	   -108.09287076	     11.81237863	     11.82170999	     45.47739613	     80.58028733	    -15.65003431	     -3.08119923	   -110.16698775	     16.34218703	     13.98513344	     49.86294513	    -52.39614080	     -1.22287734	      2.85109124	      7.78339592	     -3.72757035	      2.57720884	     77.04059247	    -35.01682092	     43.83192672	     69.41463591	    118.13225661	     -1.36574912	      8.52250463	     25.52531227	     69.29113588	    -30.87653899	     20.42618815	     73.10162197	    106.82611536	     -8.75572907	      4.23593957	     31.09021251
      1.72000000	      3.68589308	    -16.03548025	     81.89974971	     -0.05645955	      0.63404711	      0.48761975	     82.57715883	     -2.15973903	     -4.54850017	   -107.76986825	     11.55322931	     11.85808950	     45.45192537	     80.27475780	    -15.61649133	     -3.12504191	   -109.80903080	     16.31752091	     14.03318706	     49.88107643	    -52.31612502	     -1.17931919	      2.88169255	      7.71001552	     -3.68803039	      2.56388107	     76.42416763	    -35.30309657	     43.72665147	     69.39922508	    118.10522119	     -1.34680241	      8.43845291	     25.34722462	     68.55658236	    -30.92103125	     20.14342546	     73.09090180	    106.86433325	     -8.87690446	      4.17866501	     31.01726372
      1.72250000	      3.70695912	    -16.07888774	     81.92000594	     -0.05645520	      0.63594281	      0.48721521	     82.39054807	     -2.11972535	     -4.54554277	   -107.48348800	     11.51001235	     11.85754560	     45.44372812	     80.07443116	    -15.57039076	     -3.14742566	   -109.50400830	     16.30221708	     14.04099373	     49.88168707	    -52.13691525	     -1.15453723	      2.89835753	      7.81889767	     -3.67648874	      2.56211475	     75.93012958	    -35.55403315	     43.88508154	     69.22783603	    118.10667817	     -1.28216375	      8.47066287	     25.35161285	     68.02319591	    -31.08240534	     20.23421633	     72.93951089	    106.87725638	     -8.84349860	      4.21093150	     31.03206910
      1.72500000	      3.72960441	    -16.12724372	     81.93612362	     -0.05651362	      0.63793691	      0.48683766	     82.19131042	     -2.08573868	     -4.55699322	   -107.15996005	     11.45456394	     11.85754939	     45.43376073	     79.85630418	    -15.52598176	     -3.19479403	   -109.15829199	     16.29186228	     14.05370138	     49.88200078	    -51.97239731	     -1.11928872	      2.92199943	      7.89456676	     -3.65884696	      2.55594030	     75.42975323	    -35.81307160	     44.00270175	     69.09304187	    118.09732482	     -1.22682501	      8.49908277	     25.35449326	     67.45040290	    -31.24417830	     20.28131427	     72.82987946	    106.87758396	     -8.82302734	      4.23222297	     31.04802887
      1.72750000	      3.80296532	    -16.04812370	     81.89687849	     -0.05660123	      0.64059788	      0.48595949	     81.73744056	     -1.99788115	     -4.63268212	   -106.75387092	     11.41625517	     11.71003785	     45.48709142	     79.34904772	    -15.61234423	     -3.30680248	   -108.73763063	     16.76546332	     14.41330287	     49.92725157	    -52.05110796	     -1.06426918	      2.92600024	      8.01028872	     -3.86212109	      2.62165870	     74.23485255	    -35.67725811	     42.42894668	     69.25828150	    118.55024337	     -0.09186332	      8.75371715	     24.49627787	     65.96778189	    -30.79942093	     18.28380465	     73.24484688	    107.86974455	     -8.36961516	      4.18215644	     31.47314818
